# xmcd
#
# Track frame offsets:
#	150
#	13878
#	25911
#	35383
#	46422
#	58963
#	70178
#	83043
#	93389
#	105744
#	115593
#	128221
#	140608
#	151479
#	164147
#	173866
#	186118
#	199251
#	209093
#	220109
#	232513
#	246242
#	256053
#	266263
#	278113
#
# Disc length: 3860 seconds
#
# Revision: 0
# Processed by: cddbd v1.5.2PL0 Copyright (c) Steve Scherf et al.
# Submitted via: audiograbber 1.83.01
#
DISCID=690f1219
DTITLE=Various Artist - Rocked By The Stones
DYEAR=2014
DGENRE=Blues
TTITLE0=Nat King Cole - (Get Your Kicks On) Route 66
TTITLE1=Barrett Strong - Money (That's What I Want)
TTITLE2=Chuck Berry - Bye Bye Johnny
TTITLE3=Robert Johnson - Love In Vain
TTITLE4=Arthur Alexander - You Better Move On
TTITLE5=Diddley Daddy - Bo Diddley
TTITLE6=Howlin' Wolf - I Ain't Superstitious
TTITLE7=Robert Johnson - Stop Breaking Down Blues
TTITLE8=Muddy Waters - I Can't Be Satisfied
TTITLE9=Buddy Holly - Learning The Game
TTITLE10=Howlin' Wolf - Little Baby
TTITLE11=Chuck Berry - Little Queenie
TTITLE12=Muddy Waters - Look What You've Done
TTITLE13=Bo Diddley - Road Runner
TTITLE14=Gene Allison - You Can Make It If You Try
TTITLE15=Chuck Berry - You Can't Catch Me
TTITLE16=Reverend Robert Wilkins - Prodigal Son
TTITLE17=Benny Spellman - Fortune Teller
TTITLE18=Wibert Harrison - Kansas City
TTITLE19=Bo Diddley - Pretty Thing
TTITLE20=Eddie Taylor - Bad Boy
TTITLE21=Paul Anka - Tell Me That You Love Me
TTITLE22=John Lee Hooker - Dimples
TTITLE23=Hank Williams - You Win Again
TTITLE24=Marvin Gaye - Hitch Hike
EXTD=CD 1-2
EXTT0=
EXTT1=
EXTT2=
EXTT3=
EXTT4=
EXTT5=
EXTT6=
EXTT7=
EXTT8=
EXTT9=
EXTT10=
EXTT11=
EXTT12=
EXTT13=
EXTT14=
EXTT15=
EXTT16=
EXTT17=
EXTT18=
EXTT19=
EXTT20=
EXTT21=
EXTT22=
EXTT23=
EXTT24=
PLAYORDER=
